#N canvas 643 62 1185 844 10;
#X obj 708 26 adc~;
#X obj 188 365 freeverb~;
#X obj 235 643 dac~;
#X msg 525 106 roomsize \$1;
#X msg 525 151 damping \$1;
#X msg 525 195 width \$1;
#X msg 525 239 wet \$1;
#X msg 525 283 dry \$1;
#X msg 559 306 print;
#X msg 578 345 freeze \$1;
#X msg 583 382 bypass \$1;
#X obj 583 363 tgl 15 0 empty empty empty 0 -6 0 8 -262144 -1 -1 0
1;
#X obj 578 326 tgl 15 0 empty empty empty 0 -6 0 8 -262144 -1 -1 0
1;
#X obj 537 260 hsl 60 18 0 1 0 1 empty empty dry 2 9 1 12 -225271 -1
-1 5900 0;
#X obj 537 216 hsl 60 18 0 1 0 1 empty empty wet 2 9 1 12 -225271 -1
-1 5900 0;
#X obj 537 172 hsl 60 18 0 1 0 1 empty empty width 2 9 1 12 -262131
-1 -1 5900 0;
#X obj 537 128 hsl 60 18 0 2 0 1 empty empty damping 2 9 1 12 -261689
-1 -1 5900 0;
#X obj 534 81 hsl 60 18 0.11 1.1 0 1 empty empty roomsize 2 9 1 12
-261689 -1 -1 1000 0;
#X floatatom 493 86 3 0 0 0 - - -, f 3;
#X floatatom 493 131 3 0 0 0 - - -, f 3;
#X floatatom 493 176 3 0 0 0 - - -, f 3;
#X floatatom 493 219 3 0 0 0 - - -, f 3;
#X floatatom 493 263 3 0 0 0 - - -, f 3;
#X obj 140 149 readsf~ 1;
#X msg 102 53 open 1.wav \, 1;
#X msg 169 105 stop;
#X msg 104 14 start;
#X obj 509 557 cos~;
#X obj 582 557 cos~;
#X obj 588 454 hsl 100 30 0 0.99 0 0 empty empty empty -2 -8 0 10 -260097
-1 -1 9441 1;
#X floatatom 505 503 5 0 0 0 - - -, f 5;
#X obj 582 526 + 0.75;
#X obj 495 605 *~;
#X obj 568 607 *~;
#X text 706 472 <-- Range: 0-.25;
#X obj 508 726 dac~;
#X floatatom 633 616 5 0 0 0 - - -, f 5;
#X obj 632 592 snapshot~;
#X floatatom 717 617 5 0 0 0 - - -, f 5;
#X obj 716 593 snapshot~;
#X obj 709 561 metro 50;
#X obj 712 527 tgl 15 0 empty empty empty 17 7 0 10 -262144 -1 -1 0
1;
#X obj 708 72 fiddle~;
#X floatatom 708 121 5 0 0 0 - - -, f 5;
#X obj 709 165 moses 60;
#X floatatom 709 195 5 0 0 0 - - -, f 5;
#X floatatom 767 197 5 0 0 0 - - -, f 5;
#X obj 709 226 / 60;
#X floatatom 709 258 5 0 0 0 - - -, f 5;
#X obj 767 227 / 120;
#X floatatom 767 259 5 0 0 0 - - -, f 5;
#X connect 0 0 42 0;
#X connect 1 0 2 0;
#X connect 1 0 32 0;
#X connect 1 0 33 0;
#X connect 1 1 2 1;
#X connect 1 1 32 0;
#X connect 1 1 33 0;
#X connect 3 0 1 0;
#X connect 4 0 1 0;
#X connect 5 0 1 0;
#X connect 6 0 1 0;
#X connect 7 0 1 0;
#X connect 8 0 1 0;
#X connect 9 0 1 0;
#X connect 11 0 10 0;
#X connect 12 0 9 0;
#X connect 13 0 7 0;
#X connect 13 0 22 0;
#X connect 14 0 6 0;
#X connect 14 0 21 0;
#X connect 15 0 5 0;
#X connect 15 0 20 0;
#X connect 16 0 4 0;
#X connect 16 0 19 0;
#X connect 17 0 3 0;
#X connect 17 0 18 0;
#X connect 23 0 1 0;
#X connect 23 0 1 1;
#X connect 23 1 1 1;
#X connect 24 0 23 0;
#X connect 25 0 23 0;
#X connect 26 0 24 0;
#X connect 27 0 32 1;
#X connect 27 0 37 0;
#X connect 28 0 33 1;
#X connect 28 0 39 0;
#X connect 29 0 30 0;
#X connect 29 0 27 0;
#X connect 29 0 31 0;
#X connect 31 0 28 0;
#X connect 32 0 35 0;
#X connect 33 0 35 1;
#X connect 37 0 36 0;
#X connect 39 0 38 0;
#X connect 40 0 39 0;
#X connect 40 0 37 0;
#X connect 41 0 40 0;
#X connect 42 0 43 0;
#X connect 43 0 44 0;
#X connect 44 0 45 0;
#X connect 44 1 46 0;
#X connect 45 0 47 0;
#X connect 46 0 49 0;
#X connect 47 0 48 0;
#X connect 48 0 29 0;
#X connect 49 0 50 0;
